<svg width="202" height="72" viewBox="0 0 202 72" fill="none" xmlns="http://www.w3.org/2000/svg">
<g clip-path="url(#clip0_27_98)">
<path d="M22.0734 0L16.8379 11.7021L22.0734 15.3907L27.435 11.871L22.0734 0Z" fill="#CCDCEB"/>
<path d="M22.0734 15.3907L10.1792 23.7146L16.8379 11.7021L22.0734 15.3907Z" fill="#B3CAE2"/>
<path d="M27.4354 11.871L33.8299 23.5221L22.0737 15.3907L27.4354 11.871Z" fill="#B3CAE2"/>
<path d="M10.1792 23.7145L22.1365 31.4217L33.8296 23.5221L22.0734 15.3907L10.1792 23.7145Z" fill="#99B8D7"/>
<path d="M22.1367 31.4217L33.5618 39.3056L40.2007 34.5564L33.8298 23.5221" fill="#80A7CE"/>
<path d="M10.7116 39.3056C8.46833 37.75 6.22906 36.1945 3.98584 34.6428L10.1793 23.7146C14.1651 26.2836 18.1508 28.8526 22.1366 31.4217C18.3282 34.0497 14.5199 36.6815 10.7116 39.3095V39.3056Z" fill="#80A7CE"/>
<path d="M22.1365 31.4217L10.7114 39.3056L22.1365 47.4055L33.5615 39.3056L22.1365 31.4217Z" fill="#6695C4"/>
<path d="M33.5615 39.3056L43.9458 46.8517C43.8038 44.919 43.4254 42.4403 42.4989 39.6866C41.8129 37.644 40.9811 35.9313 40.2005 34.5564L33.5615 39.3056Z" fill="#6695C4"/>
<path d="M10.7118 39.3056L0.0712891 46.6003C0.2211 44.8876 0.571972 42.6917 1.39199 40.2405C2.1647 37.9307 3.13058 36.057 3.98608 34.6428L10.7118 39.3056Z" fill="#6695C4"/>
<path d="M0.0712891 46.6003V48.1676L10.7118 55.0695L22.1368 47.4055L10.7118 39.3056L0.0712891 46.6003Z" fill="#4D84BA"/>
<path d="M33.5618 39.3056L43.946 46.8556V47.9476L33.5618 55.0695L22.1367 47.4055L33.5618 39.3056Z" fill="#4D84BA"/>
<path d="M10.7114 55.0695L22.1365 63.1144L33.5615 55.0695L22.1365 47.4055L10.7114 55.0695Z" fill="#3371B0"/>
<path d="M0.0711095 48.1676C-0.0747588 50.4067 -0.0392773 53.235 0.540254 56.4365C0.895068 58.3966 1.38392 60.129 1.90038 61.6099L10.7077 55.0695L0.0711095 48.1676Z" fill="#3371B0"/>
<path d="M33.5616 55.0695L42.156 61.111C42.5187 60.3882 42.9917 59.3198 43.3387 57.9645C43.6541 56.7272 43.7408 55.7294 43.8157 54.3074C43.9024 52.7047 43.9773 50.5481 43.9419 47.9476L33.5576 55.0695H33.5616Z" fill="#3371B0"/>
<path d="M22.1367 63.1144L33.0414 70.4719C34.4724 69.8395 36.8418 68.5668 39.0101 66.147C40.6817 64.2811 41.6279 62.4152 42.1601 61.111L33.5657 55.0695L22.1407 63.1144H22.1367Z" fill="#1A60A6"/>
<path d="M10.7116 55.0695L1.9043 61.6099C2.62575 62.9809 3.90309 65.0078 6.03198 66.9523C8.21606 68.9478 10.408 70.0477 11.8628 70.6408L22.1406 63.1144L10.7155 55.0695H10.7116Z" fill="#1A60A6"/>
<path d="M22.1367 63.1144L33.0413 70.4719C30.3802 71.2301 26.6428 72 22.1367 72C17.938 72 14.4254 71.3322 11.8589 70.6448L22.1367 63.1183V63.1144Z" fill="#004E9C"/>
<path d="M55.1934 40.4369L61.4381 20.0731H67.2019L73.4466 40.4369H69.4727L63.91 22.4772H64.6472L59.1673 40.4369H55.1934ZM58.9386 36.1944V32.6041H69.725V36.1944H58.9386Z" fill="#004E9C"/>
<path d="M82.2147 40.8611C80.8033 40.8611 79.5694 40.5076 78.5089 39.8005C77.4483 39.0935 76.6244 38.131 76.033 36.9172C75.4417 35.6995 75.146 34.3285 75.146 32.8005C75.146 31.2724 75.4456 29.8622 76.0488 28.6484C76.648 27.4385 77.4957 26.4839 78.5838 25.7847C79.6719 25.0855 80.9492 24.7398 82.4158 24.7398C83.8823 24.7398 85.0966 25.0933 86.0901 25.8004C87.0835 26.5075 87.8365 27.4699 88.3451 28.6837C88.8537 29.8975 89.1099 31.2724 89.1099 32.8005C89.1099 34.3285 88.8537 35.6995 88.3372 36.9172C87.8208 38.135 87.052 39.0935 86.0309 39.8005C85.0098 40.5076 83.7365 40.8611 82.2147 40.8611ZM82.8376 37.4397C83.697 37.4397 84.387 37.2472 84.9034 36.8583C85.4199 36.4733 85.7904 35.9313 86.0191 35.232C86.2478 34.5328 86.3581 33.7236 86.3581 32.8005C86.3581 31.8773 86.2438 31.0642 86.0191 30.3689C85.7904 29.6697 85.4317 29.1276 84.9349 28.7426C84.4382 28.3577 83.7877 28.1613 82.9835 28.1613C82.124 28.1613 81.4144 28.3695 80.8625 28.7898C80.3105 29.2101 79.9005 29.7718 79.6364 30.4711C79.3722 31.1742 79.2382 31.9481 79.2382 32.7965C79.2382 33.645 79.3644 34.4346 79.6206 35.1378C79.8769 35.8409 80.2672 36.3987 80.7994 36.8151C81.3277 37.2315 82.0097 37.4358 82.8415 37.4358L82.8376 37.4397ZM85.8732 47.2248V35.6288H86.3542V25.1641H89.7604V47.2248H85.8732Z" fill="#004E9C"/>
<path d="M99.4426 40.8886C98.2402 40.8886 97.2624 40.6844 96.5055 40.2798C95.7486 39.8752 95.1612 39.3606 94.7393 38.7399C94.3175 38.1193 94.0179 37.4711 93.8365 36.7955C93.6552 36.1198 93.5487 35.507 93.5093 34.9492C93.4699 34.3914 93.4541 33.9868 93.4541 33.7315V25.1601H97.3728V32.3723C97.3728 32.7219 97.3925 33.1658 97.428 33.7079C97.4675 34.25 97.5857 34.796 97.7828 35.342C97.98 35.888 98.3072 36.3476 98.7566 36.713C99.206 37.0822 99.8408 37.2629 100.665 37.2629C100.996 37.2629 101.351 37.2118 101.729 37.1058C102.108 36.9997 102.462 36.8033 102.794 36.5048C103.125 36.2062 103.397 35.7702 103.61 35.1888C103.823 34.6074 103.929 33.8493 103.929 32.9065L106.145 33.9514C106.145 35.1574 105.9 36.2887 105.407 37.3454C104.915 38.4021 104.173 39.2545 103.188 39.9066C102.202 40.5587 100.953 40.8808 99.4465 40.8808L99.4426 40.8886ZM104.41 40.4369V35.3734H103.929V25.1641H107.816V40.4369H104.41Z" fill="#004E9C"/>
<path d="M116.048 40.8612C114.952 40.8612 114.022 40.649 113.261 40.2326C112.5 39.8163 111.921 39.2506 111.53 38.5514C111.136 37.8482 110.943 37.0744 110.943 36.2259C110.943 35.5188 111.053 34.8746 111.27 34.2893C111.487 33.704 111.842 33.1894 112.327 32.7416C112.816 32.2937 113.47 31.9206 114.294 31.6181C114.862 31.4099 115.54 31.2253 116.324 31.0681C117.109 30.9071 118 30.7539 118.993 30.6085C119.987 30.4632 121.079 30.2982 122.273 30.1215L120.882 30.8835C120.882 29.98 120.665 29.3122 120.227 28.888C119.794 28.4638 119.064 28.2516 118.043 28.2516C117.475 28.2516 116.884 28.3891 116.269 28.6602C115.654 28.9351 115.224 29.4183 114.976 30.1175L111.483 29.0137C111.869 27.7488 112.599 26.7236 113.667 25.9301C114.735 25.1366 116.194 24.7437 118.039 24.7437C119.391 24.7437 120.594 24.9519 121.643 25.3644C122.691 25.7808 123.488 26.4957 124.028 27.5131C124.331 28.0788 124.509 28.6444 124.568 29.2101C124.623 29.7758 124.654 30.4082 124.654 31.1035V40.4369H121.276V37.2983L121.757 37.9504C121.008 38.9795 120.204 39.722 119.336 40.1776C118.469 40.6333 117.377 40.8651 116.052 40.8651L116.048 40.8612ZM116.872 37.8364C117.582 37.8364 118.181 37.7107 118.666 37.4633C119.155 37.2119 119.541 36.929 119.829 36.6069C120.117 36.2848 120.314 36.0177 120.416 35.8016C120.614 35.3852 120.732 34.9021 120.763 34.3521C120.795 33.8022 120.815 33.3426 120.815 32.9733L121.95 33.2562C120.807 33.4447 119.876 33.6018 119.167 33.7315C118.457 33.8572 117.885 33.975 117.448 34.0772C117.014 34.1793 116.628 34.2932 116.297 34.415C115.918 34.5642 115.615 34.7292 115.382 34.9021C115.149 35.0749 114.98 35.2674 114.869 35.4756C114.759 35.6838 114.708 35.9155 114.708 36.167C114.708 36.5166 114.795 36.8151 114.972 37.0665C115.145 37.3179 115.394 37.5065 115.717 37.64C116.04 37.7736 116.423 37.8364 116.868 37.8364H116.872Z" fill="#004E9C"/>
<path d="M137.112 40.8612C135.07 40.8612 133.308 40.4173 131.826 39.5334C130.343 38.6496 129.204 37.4083 128.404 35.8134C127.603 34.2186 127.205 32.3684 127.205 30.255C127.205 28.1416 127.603 26.2915 128.404 24.6966C129.204 23.1018 130.343 21.8644 131.826 20.9766C133.308 20.0888 135.07 19.6489 137.112 19.6489C139.458 19.6489 141.429 20.2302 143.022 21.3891C144.615 22.5479 145.738 24.1192 146.393 26.099L142.505 27.1753C142.127 25.9418 141.488 24.9794 140.589 24.2959C139.691 23.6124 138.532 23.2707 137.112 23.2707C135.815 23.2707 134.735 23.5574 133.868 24.1349C133 24.7084 132.35 25.5215 131.916 26.5664C131.483 27.6113 131.262 28.8448 131.262 30.2589C131.262 31.6731 131.479 32.9026 131.916 33.9514C132.35 34.9963 133 35.8095 133.868 36.383C134.735 36.9565 135.815 37.2472 137.112 37.2472C138.532 37.2472 139.691 36.9015 140.589 36.2141C141.488 35.5267 142.127 34.5682 142.505 33.3426L146.393 34.4189C145.738 36.3987 144.615 37.97 143.022 39.1288C141.429 40.2876 139.458 40.869 137.112 40.869V40.8612Z" fill="#004E9C"/>
<path d="M149.487 40.4369V20.0731H152.921V30.5378H153.402V40.4369H149.483H149.487ZM159.962 40.4369V33.2247C159.962 32.8751 159.943 32.4312 159.907 31.8891C159.868 31.347 159.749 30.801 159.552 30.255C159.355 29.709 159.028 29.2494 158.578 28.8841C158.129 28.5148 157.494 28.3341 156.67 28.3341C156.339 28.3341 155.984 28.3852 155.606 28.4912C155.227 28.5934 154.873 28.7937 154.541 29.0923C154.21 29.3908 153.938 29.8268 153.725 30.4003C153.513 30.9739 153.406 31.7399 153.406 32.6905L151.19 31.6456C151.19 30.4396 151.435 29.3083 151.928 28.2516C152.42 27.1949 153.162 26.3425 154.147 25.6904C155.137 25.0384 156.383 24.7162 157.889 24.7162C159.091 24.7162 160.069 24.9205 160.826 25.3251C161.583 25.7297 162.17 26.2443 162.592 26.865C163.014 27.4856 163.313 28.1338 163.495 28.8094C163.676 29.4851 163.782 30.0979 163.822 30.6557C163.861 31.2135 163.877 31.6181 163.877 31.8734V40.4448H159.958L159.962 40.4369Z" fill="#004E9C"/>
<path d="M167.851 23.0428V19.6489H171.711V23.0428H167.851ZM167.851 40.4369V25.1641H171.711V40.4369H167.851Z" fill="#004E9C"/>
<path d="M183.092 40.8611C181.523 40.8611 180.139 40.5233 178.941 39.8516C177.742 39.1799 176.808 38.2489 176.13 37.0665C175.452 35.8841 175.117 34.5289 175.117 33.0008C175.117 31.3313 175.448 29.8818 176.11 28.6444C176.772 27.411 177.687 26.4486 178.85 25.7651C180.013 25.0816 181.354 24.7398 182.867 24.7398C184.476 24.7398 185.844 25.1169 186.968 25.8711C188.095 26.6253 188.927 27.686 189.467 29.053C190.007 30.42 190.196 32.0266 190.035 33.8768H186.218V32.4627C186.218 30.9071 185.97 29.7875 185.473 29.104C184.977 28.4205 184.164 28.0788 183.041 28.0788C181.724 28.0788 180.758 28.4755 180.139 29.273C179.52 30.0704 179.209 31.2449 179.209 32.8005C179.209 34.2225 179.52 35.3263 180.139 36.1041C180.758 36.8819 181.669 37.2708 182.871 37.2708C183.628 37.2708 184.275 37.1058 184.815 36.7758C185.355 36.4458 185.765 35.9705 186.049 35.346L189.909 36.4498C189.333 37.8443 188.422 38.9285 187.176 39.7023C185.931 40.4762 184.571 40.8611 183.096 40.8611H183.092ZM178.01 33.8768V31.021H188.174V33.8768H178.01Z" fill="#004E9C"/>
<path d="M192.093 28.1338V25.1641H201.913V28.1338H192.093ZM194.506 40.4369V25.2191C194.506 24.8341 194.513 24.3941 194.533 23.9031C194.553 23.4121 194.632 22.9171 194.766 22.4182C194.904 21.9194 195.156 21.4676 195.527 21.0591C196 20.5327 196.512 20.1713 197.068 19.9788C197.62 19.7864 198.16 19.6803 198.68 19.6685C199.201 19.6528 199.646 19.6489 200.013 19.6489H201.913V22.76H200.155C199.548 22.76 199.098 22.9132 198.807 23.2196C198.511 23.526 198.365 23.8913 198.365 24.3156V40.4369H194.506Z" fill="#004E9C"/>
<path d="M59.1003 58.5498C58.3788 58.5498 57.7677 58.3888 57.2671 58.0667C56.7664 57.7446 56.3879 57.3007 56.1277 56.7311C55.8675 56.1654 55.7335 55.5094 55.7256 54.7748C55.7335 54.0246 55.8714 53.3646 56.1395 52.799C56.4037 52.2333 56.79 51.7894 57.2907 51.4751C57.7914 51.1609 58.3985 50.9998 59.1121 50.9998C59.8257 50.9998 60.4722 51.1766 61.0084 51.5301C61.5485 51.8837 61.9151 52.3669 62.1162 52.9797L61.1582 53.286C60.9887 52.8579 60.7245 52.524 60.3579 52.2883C59.9912 52.0526 59.5734 51.9348 59.1042 51.9348C58.5759 51.9348 58.1383 52.0565 57.7953 52.2961C57.4484 52.5358 57.1922 52.8697 57.0226 53.2978C56.8531 53.726 56.7664 54.217 56.7624 54.7748C56.7703 55.6312 56.9714 56.3186 57.3617 56.8371C57.752 57.3557 58.3315 57.6149 59.1042 57.6149C59.5931 57.6149 60.007 57.5049 60.35 57.281C60.693 57.0571 60.9532 56.7311 61.1306 56.3029L62.1162 56.5936C61.8521 57.23 61.4618 57.7131 60.9453 58.047C60.4288 58.3809 59.8178 58.5459 59.1042 58.5459L59.1003 58.5498Z" fill="#6695C4"/>
<path d="M69.7725 51.1963V58.3495H68.8224V52.7793L64.8879 58.3495H64.064V51.1963H65.0141V56.7193L68.9565 51.1963H69.7725Z" fill="#6695C4"/>
<path d="M75.197 58.5498C74.4755 58.5498 73.8644 58.3888 73.3637 58.0667C72.8631 57.7446 72.4846 57.3007 72.2244 56.7311C71.9642 56.1654 71.8302 55.5094 71.8223 54.7748C71.8302 54.0246 71.9681 53.3646 72.2362 52.799C72.5004 52.2333 72.8867 51.7894 73.3874 51.4751C73.8881 51.1609 74.4952 50.9998 75.2088 50.9998C75.9224 50.9998 76.5689 51.1766 77.1051 51.5301C77.6452 51.8837 78.0118 52.3669 78.2129 52.9797L77.2549 53.286C77.0854 52.8579 76.8212 52.524 76.4546 52.2883C76.0879 52.0526 75.67 51.9348 75.2009 51.9348C74.6726 51.9348 74.235 52.0565 73.892 52.2961C73.5451 52.5358 73.2888 52.8697 73.1193 53.2978C72.9498 53.726 72.8631 54.217 72.8591 54.7748C72.867 55.6312 73.0681 56.3186 73.4584 56.8371C73.8487 57.3557 74.4282 57.6149 75.2009 57.6149C75.6897 57.6149 76.1037 57.5049 76.4467 57.281C76.7897 57.0571 77.0499 56.7311 77.2273 56.3029L78.2129 56.5936C77.9487 57.23 77.5584 57.7131 77.042 58.047C76.5255 58.3809 75.9145 58.5459 75.2009 58.5459L75.197 58.5498Z" fill="#6695C4"/>
<path d="M81.9306 58.3534V52.0997H79.3838V51.2002H85.4551V52.0997H82.9083V58.3534H81.9306Z" fill="#6695C4"/>
<path d="M90.3435 58.5498C89.6418 58.5498 89.0386 58.3966 88.5261 58.0863C88.0136 57.776 87.6154 57.3439 87.3315 56.7821C87.0477 56.2204 86.9058 55.5644 86.9058 54.8063C86.9058 54.0481 87.0437 53.3489 87.3237 52.7793C87.6036 52.2097 87.9978 51.7698 88.5024 51.4594C89.011 51.1491 89.6102 50.9959 90.3002 50.9959C90.9901 50.9959 91.613 51.157 92.1137 51.483C92.6143 51.809 92.9928 52.2726 93.2491 52.8775C93.5053 53.4825 93.6236 54.2052 93.5999 55.042H92.6025V54.6963C92.5867 53.7692 92.3857 53.07 91.9993 52.5947C91.613 52.1194 91.0571 51.8876 90.3199 51.8876C89.5826 51.8876 88.9597 52.139 88.5497 52.6379C88.1397 53.1368 87.9347 53.8478 87.9347 54.7709C87.9347 55.694 88.1397 56.3697 88.5497 56.8686C88.9597 57.3675 89.5432 57.6149 90.2962 57.6149C90.8087 57.6149 91.2582 57.4971 91.6445 57.2614C92.0309 57.0257 92.3305 56.6839 92.5513 56.2361L93.462 56.5857C93.1781 57.2064 92.7602 57.6896 92.2083 58.0313C91.6563 58.3731 91.0334 58.5459 90.3356 58.5459L90.3435 58.5498ZM87.5996 55.0459V54.2327H93.0835V55.0459H87.5996Z" fill="#6695C4"/>
<path d="M95.457 58.3534V51.2002H96.3283L99.1274 57.0571L101.934 51.2002H102.798V58.3534H101.852V53.2782L99.4388 58.3534H98.8199L96.4071 53.2782V58.3534H95.457Z" fill="#6695C4"/>
<path d="M107.296 58.5498C106.756 58.5498 106.302 58.4516 105.936 58.2592C105.569 58.0627 105.297 57.8074 105.116 57.4853C104.934 57.1632 104.844 56.8136 104.844 56.4325C104.844 56.0515 104.923 55.7098 105.08 55.4348C105.238 55.1598 105.451 54.932 105.727 54.7552C105.999 54.5784 106.314 54.4449 106.673 54.3506C107.036 54.2642 107.438 54.1856 107.879 54.1149C108.321 54.0481 108.751 53.9853 109.176 53.9342C109.598 53.8831 109.969 53.8321 110.288 53.7849L109.941 53.9971C109.953 53.29 109.819 52.7675 109.527 52.4258C109.24 52.084 108.739 51.9151 108.025 51.9151C107.532 51.9151 107.119 52.0251 106.779 52.2451C106.44 52.4651 106.204 52.8147 106.066 53.29L105.116 53.0111C105.281 52.3708 105.609 51.8719 106.105 51.5223C106.602 51.1688 107.245 50.992 108.041 50.992C108.695 50.992 109.255 51.1138 109.713 51.3612C110.17 51.6048 110.497 51.9623 110.686 52.4258C110.777 52.634 110.832 52.8657 110.86 53.1211C110.887 53.3764 110.899 53.6396 110.899 53.9028V58.3495H110.028V56.5543L110.28 56.6604C110.036 57.2732 109.657 57.7406 109.145 58.0667C108.632 58.3888 108.013 58.5498 107.296 58.5498ZM107.41 57.7092C107.868 57.7092 108.266 57.6267 108.609 57.4657C108.952 57.3007 109.224 57.0768 109.433 56.7939C109.642 56.5072 109.776 56.189 109.839 55.8315C109.89 55.6037 109.922 55.3484 109.925 55.0734C109.929 54.7984 109.933 54.5902 109.933 54.4527L110.304 54.6452C109.973 54.6884 109.61 54.7316 109.224 54.7788C108.837 54.822 108.455 54.873 108.08 54.932C107.706 54.9909 107.367 55.0577 107.067 55.1362C106.862 55.1952 106.665 55.2737 106.476 55.3798C106.287 55.4819 106.129 55.6233 106.007 55.7922C105.885 55.9612 105.825 56.1772 105.825 56.4365C105.825 56.6447 105.877 56.845 105.983 57.0375C106.086 57.2339 106.255 57.3949 106.488 57.5206C106.72 57.6503 107.032 57.7131 107.414 57.7131L107.41 57.7092Z" fill="#6695C4"/>
<path d="M116.45 58.3534V51.2002H119.407C119.557 51.2002 119.742 51.208 119.955 51.2277C120.168 51.2473 120.369 51.2787 120.558 51.3259C120.96 51.4319 121.287 51.648 121.532 51.974C121.776 52.3001 121.903 52.6929 121.903 53.1525C121.903 53.4078 121.863 53.6357 121.788 53.8399C121.713 54.0442 121.603 54.2131 121.461 54.3584C121.394 54.4331 121.323 54.4999 121.24 54.5549C121.161 54.6099 121.082 54.657 121.008 54.6923C121.15 54.7198 121.303 54.7788 121.465 54.877C121.721 55.0262 121.918 55.2305 122.048 55.4819C122.182 55.7372 122.249 56.0436 122.249 56.405C122.249 56.8961 122.131 57.2967 121.899 57.6031C121.662 57.9135 121.351 58.1256 120.956 58.2395C120.779 58.2866 120.586 58.3181 120.381 58.3338C120.176 58.3456 119.983 58.3534 119.797 58.3534H116.454H116.45ZM117.436 54.3584H119.442C119.557 54.3584 119.687 54.3506 119.833 54.3349C119.979 54.3192 120.101 54.2917 120.207 54.2524C120.436 54.1738 120.605 54.0363 120.716 53.8399C120.826 53.6474 120.877 53.4353 120.877 53.2036C120.877 52.9522 120.818 52.7322 120.7 52.5397C120.582 52.3511 120.404 52.2176 120.172 52.1429C120.014 52.084 119.841 52.0526 119.655 52.0447C119.47 52.0369 119.356 52.033 119.304 52.033H117.428V54.3584H117.436ZM117.436 57.5246H119.75C119.845 57.5246 119.959 57.5167 120.101 57.501C120.243 57.4853 120.369 57.4657 120.479 57.4382C120.74 57.3714 120.933 57.2378 121.055 57.0375C121.177 56.8371 121.236 56.6172 121.236 56.3775C121.236 56.0633 121.146 55.808 120.96 55.6076C120.775 55.4073 120.531 55.2855 120.227 55.2384C120.124 55.2148 120.018 55.203 119.908 55.1991C119.797 55.1952 119.699 55.1912 119.608 55.1912H117.436V57.5246Z" fill="#6695C4"/>
<path d="M127.162 58.5498C126.448 58.5498 125.837 58.3888 125.332 58.0667C124.828 57.7446 124.437 57.2967 124.169 56.7272C123.901 56.1576 123.763 55.5055 123.763 54.767C123.763 54.0285 123.901 53.3568 124.173 52.7911C124.445 52.2254 124.839 51.7855 125.348 51.4673C125.857 51.153 126.46 50.992 127.162 50.992C127.863 50.992 128.494 51.153 128.999 51.4712C129.503 51.7894 129.894 52.2372 130.162 52.8029C130.43 53.3685 130.564 54.0246 130.564 54.7591C130.564 55.4937 130.43 56.1693 130.158 56.735C129.886 57.3007 129.495 57.7446 128.987 58.0627C128.478 58.3809 127.867 58.5381 127.158 58.5381L127.162 58.5498ZM127.162 57.6149C127.958 57.6149 128.553 57.3517 128.943 56.8214C129.334 56.2951 129.527 55.6076 129.527 54.7631C129.527 53.9185 129.33 53.2075 128.94 52.6968C128.545 52.1862 127.954 51.9269 127.162 51.9269C126.625 51.9269 126.184 52.0487 125.837 52.2883C125.49 52.5279 125.23 52.8618 125.06 53.29C124.891 53.7142 124.804 54.2053 124.804 54.7631C124.804 55.6233 125.005 56.3147 125.403 56.8332C125.801 57.3517 126.389 57.611 127.165 57.611L127.162 57.6149Z" fill="#6695C4"/>
<path d="M132.082 59.9404V57.5167C132.488 57.5167 132.783 57.3871 132.961 57.1239C133.138 56.8607 133.28 56.4404 133.394 55.863C133.469 55.4858 133.532 55.0852 133.58 54.6491C133.627 54.217 133.67 53.7221 133.706 53.1604C133.741 52.6025 133.773 51.9465 133.804 51.1963H138.551V57.5167H139.241V59.9404H138.299V58.3495H133.02V59.9404H132.082ZM133.737 57.5167H137.581V52.033H134.707C134.695 52.3669 134.676 52.7243 134.652 53.0975C134.628 53.4746 134.601 53.8478 134.565 54.2249C134.534 54.602 134.494 54.9516 134.451 55.2816C134.408 55.6115 134.36 55.8983 134.301 56.1458C134.234 56.464 134.163 56.735 134.084 56.9589C134.005 57.1828 133.891 57.3714 133.733 57.5167H133.737Z" fill="#6695C4"/>
<path d="M144.157 58.5498C143.444 58.5498 142.832 58.3888 142.328 58.0667C141.823 57.7446 141.433 57.2967 141.165 56.7272C140.897 56.1576 140.759 55.5055 140.759 54.767C140.759 54.0285 140.897 53.3568 141.169 52.7911C141.441 52.2254 141.835 51.7855 142.344 51.4673C142.852 51.153 143.455 50.992 144.157 50.992C144.859 50.992 145.49 51.153 145.994 51.4712C146.499 51.7894 146.889 52.2372 147.157 52.8029C147.425 53.3685 147.559 54.0246 147.559 54.7591C147.559 55.4937 147.425 56.1693 147.153 56.735C146.881 57.3007 146.491 57.7446 145.982 58.0627C145.474 58.3809 144.863 58.5381 144.153 58.5381L144.157 58.5498ZM144.157 57.6149C144.953 57.6149 145.549 57.3517 145.939 56.8214C146.329 56.2951 146.523 55.6076 146.523 54.7631C146.523 53.9185 146.325 53.2075 145.935 52.6968C145.541 52.1862 144.95 51.9269 144.157 51.9269C143.621 51.9269 143.179 52.0487 142.832 52.2883C142.486 52.5279 142.225 52.8618 142.056 53.29C141.886 53.7142 141.8 54.2053 141.8 54.7631C141.8 55.6233 142.001 56.3147 142.399 56.8332C142.797 57.3517 143.384 57.611 144.161 57.611L144.157 57.6149Z" fill="#6695C4"/>
<path d="M152.606 58.5498C151.892 58.5498 151.281 58.3888 150.777 58.0667C150.272 57.7446 149.882 57.2967 149.614 56.7272C149.346 56.1576 149.208 55.5055 149.208 54.767C149.208 54.0285 149.346 53.3568 149.618 52.7911C149.89 52.2254 150.284 51.7855 150.792 51.4673C151.301 51.153 151.904 50.992 152.606 50.992C153.308 50.992 153.938 51.153 154.443 51.4712C154.948 51.7894 155.338 52.2372 155.606 52.8029C155.874 53.3685 156.008 54.0246 156.008 54.7591C156.008 55.4937 155.874 56.1693 155.602 56.735C155.33 57.3007 154.94 57.7446 154.431 58.0627C153.923 58.3809 153.312 58.5381 152.602 58.5381L152.606 58.5498ZM152.606 57.6149C153.402 57.6149 153.998 57.3517 154.388 56.8214C154.778 56.2951 154.971 55.6076 154.971 54.7631C154.971 53.9185 154.774 53.2075 154.384 52.6968C153.99 52.1862 153.398 51.9269 152.606 51.9269C152.07 51.9269 151.628 52.0487 151.281 52.2883C150.934 52.5279 150.674 52.8618 150.505 53.29C150.335 53.7142 150.248 54.2053 150.248 54.7631C150.248 55.6233 150.449 56.3147 150.848 56.8332C151.246 57.3517 151.833 57.611 152.61 57.611L152.606 57.6149Z" fill="#6695C4"/>
<path d="M162.454 58.3534V55.6901C162.213 55.808 161.917 55.914 161.571 56.0004C161.22 56.0908 160.845 56.134 160.439 56.134C159.714 56.134 159.122 55.9729 158.669 55.6508C158.216 55.3287 157.92 54.8613 157.786 54.2524C157.743 54.0717 157.711 53.8792 157.695 53.6749C157.679 53.4707 157.668 53.29 157.664 53.125C157.66 52.96 157.656 52.8461 157.656 52.7754V51.2002H158.641V52.7754C158.641 52.9207 158.645 53.0857 158.653 53.2703C158.661 53.455 158.681 53.6357 158.712 53.8124C158.803 54.2956 159 54.657 159.316 54.9045C159.627 55.152 160.069 55.2737 160.636 55.2737C160.991 55.2737 161.326 55.2266 161.645 55.1362C161.961 55.0459 162.233 54.9241 162.454 54.767V51.1884H163.431V58.3417H162.454V58.3534Z" fill="#6695C4"/>
<path d="M171.585 51.1963V58.3495H170.634V52.7793L166.7 58.3495H165.876V51.1963H166.826V56.7193L170.768 51.1963H171.585Z" fill="#6695C4"/>
<path d="M177.009 58.5498C176.288 58.5498 175.676 58.3888 175.176 58.0667C174.675 57.7446 174.297 57.3007 174.036 56.7311C173.776 56.1654 173.642 55.5094 173.634 54.7748C173.642 54.0246 173.78 53.3646 174.044 52.799C174.308 52.2333 174.695 51.7894 175.195 51.4751C175.696 51.1609 176.303 50.9998 177.017 50.9998C177.73 50.9998 178.377 51.1766 178.913 51.5301C179.449 51.8837 179.82 52.3669 180.021 52.9797L179.063 53.286C178.893 52.8579 178.629 52.524 178.263 52.2883C177.896 52.0526 177.478 51.9348 177.009 51.9348C176.481 51.9348 176.043 52.0565 175.7 52.2961C175.353 52.5358 175.097 52.8697 174.927 53.2978C174.758 53.726 174.671 54.217 174.667 54.7748C174.675 55.6312 174.876 56.3186 175.266 56.8371C175.657 57.3557 176.236 57.6149 177.009 57.6149C177.498 57.6149 177.912 57.5049 178.255 57.281C178.598 57.0571 178.858 56.7311 179.035 56.3029L180.021 56.5936C179.757 57.23 179.367 57.7131 178.85 58.047C178.338 58.3809 177.723 58.5459 177.009 58.5459V58.5498Z" fill="#6695C4"/>
<path d="M183.743 58.3534V52.0997H181.196V51.2002H187.267V52.0997H184.72V58.3534H183.743Z" fill="#6695C4"/>
<path d="M189.108 58.3534L189.116 51.2002H190.102V54.6452L193.307 51.2002H194.612L191.249 54.7788L195.054 58.3574H193.63L190.106 54.9123V58.3574H189.116L189.108 58.3534Z" fill="#6695C4"/>
<path d="M202 51.1963V58.3495H201.05V52.7793L197.115 58.3495H196.292V51.1963H197.242V56.7193L201.184 51.1963H202Z" fill="#6695C4"/>
</g>
<defs>
<clipPath id="clip0_27_98">
<rect width="202" height="72" fill="white"/>
</clipPath>
</defs>
</svg>
