<svg width="40" height="40" viewBox="0 0 40 40" fill="none" xmlns="http://www.w3.org/2000/svg">
<path d="M20 40C31.0457 40 40 31.0457 40 20C40 8.95432 31.0457 0 20 0C8.95432 0 0 8.95432 0 20C0 31.0457 8.95432 40 20 40Z" fill="#34AADF"/>
<path d="M8.5735 19.5619C8.5735 19.5619 18.4805 15.3472 21.9164 13.8631C23.2335 13.2695 27.7002 11.3698 27.7002 11.3698C27.7002 11.3698 29.7618 10.5387 29.59 12.5571C29.5327 13.3882 29.0746 16.2969 28.6165 19.4432C27.9293 23.8955 27.1848 28.7633 27.1848 28.7633C27.1848 28.7633 27.0703 30.1287 26.0968 30.3661C25.1233 30.6035 23.5198 29.5351 23.2335 29.2975C23.0044 29.1195 18.9386 26.4481 17.4497 25.1421C17.0488 24.7859 16.5907 24.0736 17.5069 23.2425C19.5685 21.2835 22.0309 18.8496 23.5198 17.3062C24.207 16.5938 24.8942 14.9316 22.0309 16.9499C17.9651 19.8588 13.9565 22.5895 13.9565 22.5895C13.9565 22.5895 13.0402 23.1831 11.3223 22.6488C9.60422 22.1146 7.59992 21.4022 7.59992 21.4022C7.59992 21.4022 6.22562 20.5118 8.5735 19.5619Z" fill="white"/>
</svg>
