<svg width="40" height="40" viewBox="0 0 40 40" fill="none" xmlns="http://www.w3.org/2000/svg">
<path d="M0 40L2.87223 29.3385C0.555848 25.1853 -0.180089 20.3388 0.799462 15.6885C1.77901 11.0381 4.40835 6.89581 8.20497 4.02164C12.0016 1.14747 16.7109 -0.265758 21.4686 0.0412894C26.2263 0.348337 30.7134 2.35506 34.1064 5.69323C37.4994 9.03139 39.5707 13.4771 39.9403 18.2145C40.31 22.9519 38.953 27.6633 36.1186 31.4841C33.2841 35.3049 29.1623 37.9788 24.5093 39.0151C19.8564 40.0515 14.9846 39.3808 10.7878 37.1261L0 40ZM11.308 33.1365L11.9752 33.531C15.015 35.3267 18.5654 36.0698 22.0732 35.6445C25.5811 35.2192 28.8492 33.6493 31.3683 31.1795C33.8875 28.7097 35.5161 25.4788 36.0005 21.9902C36.4848 18.5016 35.7977 14.9513 34.0461 11.8925C32.2945 8.8338 29.577 6.43844 26.3168 5.07974C23.0567 3.72104 19.4372 3.47533 16.0223 4.38089C12.6075 5.28646 9.58907 7.29244 7.43753 10.0862C5.28599 12.88 4.12217 16.3047 4.12741 19.8265C4.12455 22.7467 4.93487 25.6104 6.46816 28.0988L6.88656 28.7862L5.28083 34.7369L11.308 33.1365Z" fill="#00D95F"/>
<path fill-rule="evenodd" clip-rule="evenodd" d="M27.7552 22.2581C27.3676 21.9566 26.9138 21.7444 26.4284 21.6376C25.9429 21.5309 25.4386 21.5324 24.9538 21.6421C24.2255 21.9339 23.7548 23.0364 23.2842 23.5876C23.1849 23.7197 23.0391 23.8124 22.8741 23.8482C22.709 23.8841 22.5361 23.8606 22.3878 23.7822C19.7212 22.7748 17.4861 20.9274 16.0455 18.54C15.9226 18.391 15.8644 18.2019 15.8832 18.0124C15.902 17.8229 15.9963 17.6478 16.1463 17.524C16.6712 17.0228 17.0566 16.402 17.2668 15.719C17.3135 14.9657 17.1346 14.2153 16.7514 13.5573C16.4551 12.6348 15.8913 11.8135 15.1266 11.1902C14.7322 11.0191 14.2948 10.9617 13.8673 11.025C13.4399 11.0883 13.0405 11.2696 12.7174 11.5469C12.1566 12.0137 11.7114 12.5958 11.4147 13.2505C11.118 13.9052 10.9773 14.6158 11.003 15.3299C11.0047 15.7309 11.0574 16.1302 11.1599 16.5188C11.4201 17.4526 11.8202 18.3447 12.3476 19.1669C12.7282 19.7968 13.1434 20.4065 13.5915 20.9936C15.0477 22.9218 16.8781 24.5589 18.9813 25.8142C20.0367 26.452 21.1646 26.9706 22.3429 27.3598C23.5669 27.895 24.9183 28.1004 26.2536 27.9542C27.0145 27.8432 27.7353 27.5534 28.3528 27.1105C28.9702 26.6676 29.4653 26.0851 29.7946 25.4142C29.988 25.009 30.0467 24.5559 29.9627 24.1172C29.761 23.2201 28.5172 22.6905 27.7552 22.2581Z" fill="#00D95F"/>
</svg>
