<svg width="24" height="24" viewBox="0 0 24 24" fill="none" xmlns="http://www.w3.org/2000/svg">
<path d="M12.275 19C12.475 18.9833 12.646 18.904 12.788 18.762C12.93 18.62 13.0007 18.4493 13 18.25C13 18.0167 12.925 17.829 12.775 17.687C12.625 17.545 12.4333 17.4827 12.2 17.5C11.5167 17.55 10.7917 17.3623 10.025 16.937C9.25833 16.5117 8.775 15.741 8.575 14.625C8.54167 14.4417 8.45433 14.2917 8.313 14.175C8.17167 14.0583 8.009 14 7.825 14C7.59167 14 7.4 14.0877 7.25 14.263C7.1 14.4383 7.05 14.6423 7.1 14.875C7.38333 16.3917 8.05 17.475 9.1 18.125C10.15 18.775 11.2083 19.0667 12.275 19ZM12 22C9.71667 22 7.81233 21.2167 6.287 19.65C4.76167 18.0833 3.99933 16.1333 4 13.8C4 12.1333 4.66267 10.3207 5.988 8.362C7.31333 6.40333 9.31733 4.28267 12 2C14.6833 4.28333 16.6877 6.40433 18.013 8.363C19.3383 10.3217 20.0007 12.134 20 13.8C20 16.1333 19.2373 18.0833 17.712 19.65C16.1867 21.2167 14.2827 22 12 22Z" fill="#C2C2C2"/>
<mask id="mask0_18_1218" style="mask-type:alpha" maskUnits="userSpaceOnUse" x="4" y="2" width="16" height="20">
<path d="M12.275 19C12.475 18.9833 12.646 18.904 12.788 18.762C12.93 18.62 13.0007 18.4493 13 18.25C13 18.0167 12.925 17.829 12.775 17.687C12.625 17.545 12.4333 17.4827 12.2 17.5C11.5167 17.55 10.7917 17.3623 10.025 16.937C9.25833 16.5117 8.775 15.741 8.575 14.625C8.54167 14.4417 8.45433 14.2917 8.313 14.175C8.17167 14.0583 8.009 14 7.825 14C7.59167 14 7.4 14.0877 7.25 14.263C7.1 14.4383 7.05 14.6423 7.1 14.875C7.38333 16.3917 8.05 17.475 9.1 18.125C10.15 18.775 11.2083 19.0667 12.275 19ZM12 22C9.71667 22 7.81233 21.2167 6.287 19.65C4.76167 18.0833 3.99933 16.1333 4 13.8C4 12.1333 4.66267 10.3207 5.988 8.362C7.31333 6.40333 9.31733 4.28267 12 2C14.6833 4.28333 16.6877 6.40433 18.013 8.363C19.3383 10.3217 20.0007 12.134 20 13.8C20 16.1333 19.2373 18.0833 17.712 19.65C16.1867 21.2167 14.2827 22 12 22Z" fill="#C2C2C2"/>
</mask>
<g mask="url(#mask0_18_1218)">
<rect x="4" y="2" width="8" height="20" fill="#004E9C"/>
</g>
</svg>
