<svg width="45" height="40" viewBox="0 0 45 40" fill="none" xmlns="http://www.w3.org/2000/svg">
<path d="M44.9998 22.7983H36.665C36.665 22.7983 36.4767 26.7021 35.4411 28.8072C34.4054 30.9122 31.5942 33.8145 31.5942 33.8145L37.5393 39.8234C37.5393 39.8234 41.7362 35.1948 43.193 31.8705C44.6497 28.5462 44.9998 22.7983 44.9998 22.7983Z" fill="#03045E"/>
<path d="M8.28038 22.7393H0.00390625C0.00390625 22.7393 0.179137 28.2399 1.63589 31.5758C3.09264 34.9116 7.28954 39.9999 7.28954 39.9999L13.3512 33.8733C13.3512 33.8733 10.5059 30.8402 9.50437 28.6892C8.50285 26.5381 8.28038 22.7393 8.28038 22.7393Z" fill="#CAF0F8"/>
<path d="M12.4769 12.6067L6.59015 6.65674C6.59015 6.65674 3.79246 9.3077 1.81077 13.6081C-0.170921 17.9086 0.00393424 22.7392 0.00393424 22.7392L8.28041 22.6803C8.28041 22.6803 8.56841 18.9919 9.38783 17.0249C10.2073 15.0579 12.4769 12.6067 12.4769 12.6067Z" fill="#90E0EF"/>
<path d="M22.5022 0V8.36524C22.5022 8.36524 19.0392 8.59742 17.0816 9.42563C15.1241 10.2538 12.4771 12.6068 12.4771 12.6068L6.59033 6.65685C6.59033 6.65685 10.6713 3.03492 13.8177 1.70839C17.0065 0.363959 22.5022 0 22.5022 0Z" fill="#00B4D8"/>
<path d="M38.4138 6.65685L32.5853 12.6068C32.5853 12.6068 29.8331 10.1949 27.8642 9.36672C25.8953 8.53851 22.502 8.36524 22.502 8.36524V0C22.502 0 28.0357 0.401534 31.2447 1.7673C34.3575 3.09213 38.4138 6.65685 38.4138 6.65685Z" fill="#0096C7"/>
<path d="M44.9999 22.7981H36.6651C36.6651 22.7981 36.4823 19.321 35.6742 17.3195C34.8662 15.318 32.5269 12.5478 32.5269 12.5478L38.4136 6.65674C38.4136 6.65674 41.9653 10.6331 43.2513 13.7849C44.5373 16.9367 44.9999 22.7981 44.9999 22.7981Z" fill="#0077B6"/>
<path d="M26.1479 7.83275L27.1561 23.0654C27.1561 23.0654 27.4627 24.7709 25.6696 26.4905C24.3034 27.8007 22.5026 27.5282 22.5026 27.5282C22.5026 27.5282 20.6799 27.4175 19.4988 25.75C18.3178 24.0825 19.0173 22.0319 19.0173 22.0319L23.3438 7.90912C23.3438 7.90912 23.6498 7.06803 23.9734 6.80959C24.2969 6.55115 25.0009 6.58558 25.0009 6.58558C25.0009 6.58558 25.5259 6.7136 25.7499 6.95713C25.9738 7.20065 26.1479 7.83275 26.1479 7.83275Z" fill="#004E9C"/>
</svg>
