<svg width="12" height="72" viewBox="0 0 12 72" fill="none" xmlns="http://www.w3.org/2000/svg">
<circle cx="6" cy="6" r="5" stroke="#004E9C" stroke-width="2"/>
<path d="M6 16L6 56" stroke="#004E9C" stroke-width="2" stroke-linecap="round" stroke-dasharray="4 4"/>
<path d="M5.24516 71.0113C5.57453 71.6704 5.73921 72 6 72C6.26079 72 6.42547 71.6704 6.75484 71.0113L11.734 61.0472C11.9276 60.6599 12.0244 60.4662 11.9947 60.3229C11.9697 60.2018 11.893 60.0978 11.7847 60.0383C11.6564 59.9678 11.443 60.0034 11.0161 60.0746C9.12692 60.3896 8.18233 60.5471 7.23201 60.609C6.41154 60.6623 5.58846 60.6623 4.76799 60.609C3.81767 60.5471 2.87308 60.3896 0.983885 60.0746C0.557004 60.0034 0.343564 59.9678 0.215346 60.0383C0.107042 60.0978 0.0302541 60.2018 0.00524934 60.3229C-0.0243532 60.4662 0.0724168 60.6599 0.265957 61.0472L5.24516 71.0113Z" fill="#004E9C"/>
</svg>
