<svg width="202" height="72" viewBox="0 0 202 72" fill="none" xmlns="http://www.w3.org/2000/svg">
<g clip-path="url(#clip0_29_493)">
<path d="M22.0734 0L16.8379 11.7021L22.0734 15.3907L27.435 11.871L22.0734 0Z" fill="#F9F9F9"/>
<path opacity="0.9" d="M22.0734 15.3907L10.1792 23.7146L16.8379 11.7021L22.0734 15.3907Z" fill="#F9F9F9"/>
<path opacity="0.9" d="M27.4354 11.8711L33.8299 23.5221L22.0737 15.3908L27.4354 11.8711Z" fill="#F9F9F9"/>
<path opacity="0.8" d="M10.1792 23.7106L22.1365 31.4138L33.8296 23.522L22.0734 15.3906L10.1792 23.7106Z" fill="#F9F9F9"/>
<path opacity="0.7" d="M22.1367 31.4221L33.5618 39.306L40.2007 34.5568L33.8298 23.5225" fill="#F9F9F9"/>
<path opacity="0.7" d="M10.7116 39.3059C8.46833 37.7503 6.22906 36.1947 3.98584 34.6431L10.1793 23.7148C14.1651 26.2839 18.1508 28.8529 22.1366 31.422C18.3282 34.0499 14.5199 36.6818 10.7116 39.3098V39.3059Z" fill="#F9F9F9"/>
<path opacity="0.6" d="M22.1365 31.4219L10.7114 39.3058L22.1365 47.4057L33.5615 39.3058L22.1365 31.4219Z" fill="#F9F9F9"/>
<path opacity="0.6" d="M33.5615 39.3058L43.9458 46.8519C43.8038 44.9192 43.4254 42.4405 42.4989 39.6869C41.8129 37.6442 40.9811 35.9315 40.2005 34.5566L33.5615 39.3058Z" fill="#F9F9F9"/>
<path opacity="0.6" d="M10.7118 39.3054L0.0712891 46.6C0.2211 44.8873 0.571972 42.6915 1.39199 40.2403C2.1647 37.9305 3.13058 36.0567 3.98608 34.6426L10.7118 39.3054Z" fill="#F9F9F9"/>
<path opacity="0.5" d="M0.0712891 46.6003V48.1677L10.7118 55.0695L22.1368 47.4056L10.7118 39.3057L0.0712891 46.6003Z" fill="#F9F9F9"/>
<path opacity="0.5" d="M33.5618 39.3057L43.946 46.8557V47.9477L33.5618 55.0695L22.1367 47.4056L33.5618 39.3057Z" fill="#F9F9F9"/>
<path opacity="0.4" d="M10.7114 55.0692L22.1365 63.1142L33.5615 55.0692L22.1365 47.4053L10.7114 55.0692Z" fill="#F9F9F9"/>
<path opacity="0.4" d="M0.0711095 48.168C-0.0747588 50.407 -0.0392773 53.2353 0.540254 56.4368C0.895068 58.397 1.38392 60.1293 1.90038 61.6103L10.7077 55.0698L0.0711095 48.168Z" fill="#F9F9F9"/>
<path opacity="0.4" d="M33.5616 55.0691L42.156 61.1107C42.5187 60.3879 42.9917 59.3194 43.3387 57.9642C43.6541 56.7268 43.7408 55.729 43.8157 54.307C43.9024 52.7043 43.9773 50.5477 43.9419 47.9473L33.5576 55.0691H33.5616Z" fill="#F9F9F9"/>
<path opacity="0.3" d="M22.1367 63.1143L33.0414 70.4718C34.4724 69.8394 36.8418 68.5666 39.0101 66.1469C40.6817 64.281 41.6279 62.4151 42.1601 61.1109L33.5657 55.0693L22.1407 63.1143H22.1367Z" fill="#F9F9F9"/>
<path opacity="0.3" d="M10.7116 55.0693L1.9043 61.6098C2.62575 62.9807 3.90309 65.0077 6.03198 66.9521C8.21606 68.9477 10.408 70.0476 11.8628 70.6407L22.1406 63.1143L10.7155 55.0693H10.7116Z" fill="#F9F9F9"/>
<path opacity="0.2" d="M22.1367 63.1143L33.0413 70.4718C30.3802 71.2299 26.6428 71.9998 22.1367 71.9998C17.938 71.9998 14.4254 71.3321 11.8589 70.6446L22.1367 63.1182V63.1143Z" fill="#F9F9F9"/>
<path d="M55.1934 40.4361L61.4381 20.0723H67.2019L73.4466 40.4361H69.4727L63.91 22.4763H64.6472L59.1673 40.4361H55.1934ZM58.9386 36.1936V32.6032H69.725V36.1936H58.9386Z" fill="#F9F9F9"/>
<path d="M82.2147 40.8606C80.8033 40.8606 79.5694 40.5071 78.5089 39.8C77.4483 39.0929 76.6244 38.1305 76.033 36.9167C75.4417 35.6989 75.146 34.328 75.146 32.7999C75.146 31.2719 75.4456 29.8616 76.0488 28.6478C76.648 27.4379 77.4957 26.4834 78.5838 25.7842C79.6719 25.0849 80.9492 24.7393 82.4158 24.7393C83.8823 24.7393 85.0966 25.0928 86.0901 25.7999C87.0835 26.5069 87.8365 27.4694 88.3451 28.6832C88.8537 29.897 89.1099 31.2719 89.1099 32.7999C89.1099 34.328 88.8537 35.6989 88.3372 36.9167C87.8208 38.1344 87.052 39.0929 86.0309 39.8C85.0098 40.5071 83.7365 40.8606 82.2147 40.8606ZM82.8376 37.4391C83.697 37.4391 84.387 37.2467 84.9034 36.8578C85.4199 36.4728 85.7904 35.9307 86.0191 35.2315C86.2478 34.5323 86.3581 33.7231 86.3581 32.7999C86.3581 31.8768 86.2438 31.0637 86.0191 30.3684C85.7904 29.6691 85.4317 29.1271 84.9349 28.7421C84.4382 28.3571 83.7877 28.1607 82.9835 28.1607C82.124 28.1607 81.4144 28.3689 80.8625 28.7892C80.3105 29.2096 79.9005 29.7713 79.6364 30.4705C79.3722 31.1737 79.2382 31.9475 79.2382 32.796C79.2382 33.6445 79.3644 34.4341 79.6206 35.1372C79.8769 35.8404 80.2672 36.3982 80.7994 36.8145C81.3277 37.2309 82.0097 37.4352 82.8415 37.4352L82.8376 37.4391ZM85.8732 47.2243V35.6282H86.3542V25.1635H89.7604V47.2243H85.8732Z" fill="#F9F9F9"/>
<path d="M99.4426 40.8887C98.2402 40.8887 97.2624 40.6844 96.5055 40.2798C95.7486 39.8752 95.1612 39.3606 94.7393 38.7399C94.3175 38.1193 94.0179 37.4711 93.8365 36.7955C93.6552 36.1198 93.5487 35.507 93.5093 34.9492C93.4699 34.3914 93.4541 33.9868 93.4541 33.7315V25.1602H97.3728V32.3723C97.3728 32.7219 97.3925 33.1658 97.428 33.7079C97.4675 34.25 97.5857 34.796 97.7828 35.3421C97.98 35.8881 98.3072 36.3477 98.7566 36.713C99.206 37.0822 99.8408 37.2629 100.665 37.2629C100.996 37.2629 101.351 37.2119 101.729 37.1058C102.108 36.9998 102.462 36.8033 102.794 36.5048C103.125 36.2063 103.397 35.7702 103.61 35.1889C103.823 34.6075 103.929 33.8493 103.929 32.9066L106.145 33.9515C106.145 35.1574 105.9 36.2887 105.407 37.3454C104.915 38.4021 104.173 39.2545 103.188 39.9066C102.202 40.5587 100.953 40.8808 99.4465 40.8808L99.4426 40.8887ZM104.41 40.4369V35.3735H103.929V25.1641H107.816V40.4369H104.41Z" fill="#F9F9F9"/>
<path d="M116.048 40.8606C114.952 40.8606 114.022 40.6485 113.261 40.2321C112.5 39.8157 111.921 39.25 111.53 38.5508C111.136 37.8476 110.943 37.0738 110.943 36.2253C110.943 35.5182 111.053 34.874 111.27 34.2887C111.487 33.7034 111.842 33.1888 112.327 32.741C112.816 32.2932 113.47 31.92 114.294 31.6175C114.862 31.4093 115.54 31.2247 116.324 31.0676C117.109 30.9065 118 30.7533 118.993 30.608C119.987 30.4626 121.079 30.2976 122.273 30.1209L120.882 30.8829C120.882 29.9795 120.665 29.3117 120.227 28.8874C119.794 28.4632 119.064 28.251 118.043 28.251C117.475 28.251 116.884 28.3885 116.269 28.6596C115.654 28.9346 115.224 29.4177 114.976 30.1169L111.483 29.0131C111.869 27.7482 112.599 26.723 113.667 25.9295C114.735 25.136 116.194 24.7432 118.039 24.7432C119.391 24.7432 120.594 24.9514 121.643 25.3638C122.691 25.7802 123.488 26.4951 124.028 27.5125C124.331 28.0782 124.509 28.6439 124.568 29.2095C124.623 29.7752 124.654 30.4076 124.654 31.1029V40.4363H121.276V37.2977L121.757 37.9498C121.008 38.979 120.204 39.7214 119.336 40.1771C118.469 40.6327 117.377 40.8645 116.052 40.8645L116.048 40.8606ZM116.872 37.8359C117.582 37.8359 118.181 37.7102 118.666 37.4627C119.155 37.2113 119.541 36.9284 119.829 36.6063C120.117 36.2842 120.314 36.0171 120.416 35.8011C120.614 35.3847 120.732 34.9015 120.763 34.3515C120.795 33.8016 120.815 33.342 120.815 32.9727L121.95 33.2556C120.807 33.4441 119.876 33.6013 119.167 33.7309C118.457 33.8566 117.885 33.9744 117.448 34.0766C117.014 34.1787 116.628 34.2926 116.297 34.4144C115.918 34.5637 115.615 34.7287 115.382 34.9015C115.149 35.0743 114.98 35.2668 114.869 35.475C114.759 35.6832 114.708 35.915 114.708 36.1664C114.708 36.516 114.795 36.8145 114.972 37.0659C115.145 37.3173 115.394 37.5059 115.717 37.6394C116.04 37.773 116.423 37.8359 116.868 37.8359H116.872Z" fill="#F9F9F9"/>
<path d="M137.112 40.8607C135.07 40.8607 133.308 40.4168 131.826 39.533C130.343 38.6491 129.204 37.4078 128.404 35.813C127.603 34.2181 127.205 32.368 127.205 30.2546C127.205 28.1412 127.603 26.291 128.404 24.6962C129.204 23.1013 130.343 21.8639 131.826 20.9762C133.308 20.0884 135.07 19.6484 137.112 19.6484C139.458 19.6484 141.429 20.2298 143.022 21.3886C144.615 22.5475 145.738 24.1187 146.393 26.0985L142.505 27.1749C142.127 25.9414 141.488 24.979 140.589 24.2955C139.691 23.612 138.532 23.2702 137.112 23.2702C135.815 23.2702 134.735 23.557 133.868 24.1344C133 24.708 132.35 25.5211 131.916 26.566C131.483 27.6109 131.262 28.8444 131.262 30.2585C131.262 31.6727 131.479 32.9022 131.916 33.951C132.35 34.9959 133 35.8091 133.868 36.3826C134.735 36.9561 135.815 37.2468 137.112 37.2468C138.532 37.2468 139.691 36.9011 140.589 36.2137C141.488 35.5262 142.127 34.5677 142.505 33.3421L146.393 34.4185C145.738 36.3983 144.615 37.9696 143.022 39.1284C141.429 40.2872 139.458 40.8686 137.112 40.8686V40.8607Z" fill="#F9F9F9"/>
<path d="M149.487 40.4361V20.0723H152.921V30.537H153.402V40.4361H149.483H149.487ZM159.962 40.4361V33.2239C159.962 32.8743 159.943 32.4304 159.907 31.8883C159.868 31.3462 159.749 30.8002 159.552 30.2542C159.355 29.7081 159.028 29.2485 158.578 28.8832C158.129 28.514 157.494 28.3333 156.67 28.3333C156.339 28.3333 155.984 28.3843 155.606 28.4904C155.227 28.5925 154.873 28.7929 154.541 29.0914C154.21 29.39 153.938 29.826 153.725 30.3995C153.513 30.973 153.406 31.739 153.406 32.6896L151.19 31.6447C151.19 30.4388 151.435 29.3075 151.928 28.2508C152.42 27.1941 153.162 26.3417 154.147 25.6896C155.137 25.0375 156.383 24.7154 157.889 24.7154C159.091 24.7154 160.069 24.9197 160.826 25.3243C161.583 25.7289 162.17 26.2435 162.592 26.8641C163.014 27.4848 163.313 28.1329 163.495 28.8086C163.676 29.4842 163.782 30.097 163.822 30.6548C163.861 31.2126 163.877 31.6173 163.877 31.8726V40.4439H159.958L159.962 40.4361Z" fill="#F9F9F9"/>
<path d="M167.851 23.0424V19.6484H171.711V23.0424H167.851ZM167.851 40.4365V25.1636H171.711V40.4365H167.851Z" fill="#F9F9F9"/>
<path d="M183.092 40.8606C181.523 40.8606 180.139 40.5228 178.941 39.851C177.742 39.1793 176.808 38.2483 176.13 37.066C175.452 35.8836 175.117 34.5283 175.117 33.0003C175.117 31.3308 175.448 29.8813 176.11 28.6439C176.772 27.4104 177.687 26.448 178.85 25.7645C180.013 25.081 181.354 24.7393 182.867 24.7393C184.476 24.7393 185.844 25.1164 186.968 25.8706C188.095 26.6248 188.927 27.6854 189.467 29.0524C190.007 30.4194 190.196 32.0261 190.035 33.8763H186.218V32.4621C186.218 30.9065 185.97 29.787 185.473 29.1035C184.977 28.42 184.164 28.0782 183.041 28.0782C181.724 28.0782 180.758 28.475 180.139 29.2724C179.52 30.0698 179.209 31.2444 179.209 32.7999C179.209 34.2219 179.52 35.3258 180.139 36.1035C180.758 36.8813 181.669 37.2702 182.871 37.2702C183.628 37.2702 184.275 37.1052 184.815 36.7753C185.355 36.4453 185.765 35.97 186.049 35.3454L189.909 36.4492C189.333 37.8437 188.422 38.9279 187.176 39.7018C185.931 40.4756 184.571 40.8606 183.096 40.8606H183.092ZM178.01 33.8763V31.0205H188.174V33.8763H178.01Z" fill="#F9F9F9"/>
<path d="M192.093 28.1334V25.1636H201.913V28.1334H192.093ZM194.506 40.4365V25.2186C194.506 24.8337 194.513 24.3937 194.533 23.9027C194.553 23.4117 194.632 22.9167 194.766 22.4178C194.904 21.9189 195.156 21.4672 195.527 21.0587C196 20.5323 196.512 20.1709 197.068 19.9784C197.62 19.7859 198.16 19.6799 198.68 19.6681C199.201 19.6524 199.646 19.6484 200.013 19.6484H201.913V22.7596H200.155C199.548 22.7596 199.098 22.9128 198.807 23.2192C198.511 23.5256 198.365 23.8909 198.365 24.3151V40.4365H194.506Z" fill="#F9F9F9"/>
<g opacity="0.8">
<path d="M59.1003 58.55C58.3788 58.55 57.7677 58.3889 57.2671 58.0668C56.7664 57.7447 56.3879 57.3008 56.1277 56.7312C55.8675 56.1656 55.7335 55.5096 55.7256 54.775C55.7335 54.0247 55.8714 53.3648 56.1395 52.7991C56.4037 52.2335 56.79 51.7896 57.2907 51.4753C57.7914 51.1611 58.3985 51 59.1121 51C59.8257 51 60.4722 51.1768 61.0084 51.5303C61.5485 51.8838 61.9151 52.367 62.1162 52.9798L61.1582 53.2862C60.9887 52.858 60.7245 52.5241 60.3579 52.2884C59.9912 52.0528 59.5734 51.9349 59.1042 51.9349C58.5759 51.9349 58.1383 52.0567 57.7953 52.2963C57.4484 52.5359 57.1922 52.8698 57.0226 53.298C56.8531 53.7262 56.7664 54.2172 56.7624 54.775C56.7703 55.6314 56.9714 56.3188 57.3617 56.8373C57.752 57.3558 58.3315 57.6151 59.1042 57.6151C59.5931 57.6151 60.007 57.5051 60.35 57.2812C60.693 57.0573 60.9532 56.7312 61.1306 56.3031L62.1162 56.5938C61.8521 57.2301 61.4618 57.7133 60.9453 58.0472C60.4288 58.3811 59.8178 58.5461 59.1042 58.5461L59.1003 58.55Z" fill="#F9F9F9"/>
<path d="M69.7725 51.1963V58.3495H68.8224V52.7794L64.8879 58.3495H64.064V51.1963H65.0141V56.7193L68.9565 51.1963H69.7725Z" fill="#F9F9F9"/>
<path d="M75.197 58.55C74.4755 58.55 73.8644 58.3889 73.3637 58.0668C72.8631 57.7447 72.4846 57.3008 72.2244 56.7312C71.9642 56.1656 71.8302 55.5096 71.8223 54.775C71.8302 54.0247 71.9681 53.3648 72.2362 52.7991C72.5004 52.2335 72.8867 51.7896 73.3874 51.4753C73.8881 51.1611 74.4952 51 75.2088 51C75.9224 51 76.5689 51.1768 77.1051 51.5303C77.6452 51.8838 78.0118 52.367 78.2129 52.9798L77.2549 53.2862C77.0854 52.858 76.8212 52.5241 76.4546 52.2884C76.0879 52.0528 75.67 51.9349 75.2009 51.9349C74.6726 51.9349 74.235 52.0567 73.892 52.2963C73.5451 52.5359 73.2888 52.8698 73.1193 53.298C72.9498 53.7262 72.8631 54.2172 72.8591 54.775C72.867 55.6314 73.0681 56.3188 73.4584 56.8373C73.8487 57.3558 74.4282 57.6151 75.2009 57.6151C75.6897 57.6151 76.1037 57.5051 76.4467 57.2812C76.7897 57.0573 77.0499 56.7312 77.2273 56.3031L78.2129 56.5938C77.9487 57.2301 77.5584 57.7133 77.042 58.0472C76.5255 58.3811 75.9145 58.5461 75.2009 58.5461L75.197 58.55Z" fill="#F9F9F9"/>
<path d="M81.9306 58.3535V52.0998H79.3838V51.2002H85.4551V52.0998H82.9083V58.3535H81.9306Z" fill="#F9F9F9"/>
<path d="M90.3435 58.55C89.6418 58.55 89.0386 58.3968 88.5261 58.0865C88.0136 57.7762 87.6154 57.3441 87.3315 56.7823C87.0477 56.2206 86.9058 55.5646 86.9058 54.8064C86.9058 54.0483 87.0437 53.3491 87.3237 52.7795C87.6036 52.2099 87.9978 51.7699 88.5024 51.4596C89.011 51.1493 89.6102 50.9961 90.3002 50.9961C90.9901 50.9961 91.613 51.1571 92.1137 51.4832C92.6143 51.8092 92.9928 52.2728 93.2491 52.8777C93.5053 53.4826 93.6236 54.2054 93.5999 55.0421H92.6025V54.6965C92.5867 53.7694 92.3857 53.0702 91.9993 52.5949C91.613 52.1196 91.0571 51.8878 90.3199 51.8878C89.5826 51.8878 88.9597 52.1392 88.5497 52.6381C88.1397 53.137 87.9347 53.848 87.9347 54.7711C87.9347 55.6942 88.1397 56.3699 88.5497 56.8688C88.9597 57.3676 89.5432 57.6151 90.2962 57.6151C90.8087 57.6151 91.2582 57.4973 91.6445 57.2616C92.0309 57.0259 92.3305 56.6841 92.5513 56.2363L93.462 56.5859C93.1781 57.2066 92.7602 57.6897 92.2083 58.0315C91.6563 58.3733 91.0334 58.5461 90.3356 58.5461L90.3435 58.55ZM87.5996 55.0461V54.2329H93.0835V55.0461H87.5996Z" fill="#F9F9F9"/>
<path d="M95.457 58.3535V51.2002H96.3283L99.1274 57.0571L101.934 51.2002H102.798V58.3535H101.852V53.2782L99.4388 58.3535H98.8199L96.4071 53.2782V58.3535H95.457Z" fill="#F9F9F9"/>
<path d="M107.296 58.55C106.756 58.55 106.302 58.4518 105.936 58.2594C105.569 58.0629 105.297 57.8076 105.116 57.4855C104.934 57.1634 104.844 56.8138 104.844 56.4327C104.844 56.0517 104.923 55.71 105.08 55.435C105.238 55.16 105.451 54.9322 105.727 54.7554C105.999 54.5786 106.314 54.4451 106.673 54.3508C107.036 54.2644 107.438 54.1858 107.879 54.1151C108.321 54.0483 108.751 53.9855 109.176 53.9344C109.598 53.8833 109.969 53.8323 110.288 53.7851L109.941 53.9973C109.953 53.2902 109.819 52.7677 109.527 52.426C109.24 52.0842 108.739 51.9153 108.025 51.9153C107.532 51.9153 107.119 52.0253 106.779 52.2453C106.44 52.4653 106.204 52.8149 106.066 53.2902L105.116 53.0113C105.281 52.371 105.609 51.8721 106.105 51.5225C106.602 51.169 107.245 50.9922 108.041 50.9922C108.695 50.9922 109.255 51.114 109.713 51.3614C110.17 51.605 110.497 51.9625 110.686 52.426C110.777 52.6342 110.832 52.8659 110.86 53.1213C110.887 53.3766 110.899 53.6398 110.899 53.903V58.3497H110.028V56.5545L110.28 56.6606C110.036 57.2734 109.657 57.7408 109.145 58.0669C108.632 58.389 108.013 58.55 107.296 58.55ZM107.41 57.7094C107.868 57.7094 108.266 57.6269 108.609 57.4659C108.952 57.3009 109.224 57.077 109.433 56.7941C109.642 56.5074 109.776 56.1892 109.839 55.8317C109.89 55.6039 109.922 55.3486 109.925 55.0736C109.929 54.7986 109.933 54.5904 109.933 54.4529L110.304 54.6454C109.973 54.6886 109.61 54.7318 109.224 54.779C108.837 54.8222 108.455 54.8732 108.08 54.9322C107.706 54.9911 107.367 55.0579 107.067 55.1364C106.862 55.1954 106.665 55.2739 106.476 55.38C106.287 55.4821 106.129 55.6235 106.007 55.7924C105.885 55.9614 105.825 56.1774 105.825 56.4367C105.825 56.6449 105.877 56.8452 105.983 57.0377C106.086 57.2341 106.255 57.3952 106.488 57.5209C106.72 57.6505 107.032 57.7133 107.414 57.7133L107.41 57.7094Z" fill="#F9F9F9"/>
<path d="M116.45 58.3535V51.2002H119.407C119.557 51.2002 119.742 51.2081 119.955 51.2277C120.168 51.2473 120.369 51.2788 120.558 51.3259C120.96 51.432 121.287 51.648 121.532 51.9741C121.776 52.3001 121.903 52.6929 121.903 53.1525C121.903 53.4078 121.863 53.6357 121.788 53.8399C121.713 54.0442 121.603 54.2131 121.461 54.3585C121.394 54.4331 121.323 54.4999 121.24 54.5549C121.161 54.6099 121.082 54.657 121.008 54.6924C121.15 54.7199 121.303 54.7788 121.465 54.877C121.721 55.0263 121.918 55.2305 122.048 55.4819C122.182 55.7373 122.249 56.0437 122.249 56.4051C122.249 56.8961 122.131 57.2968 121.899 57.6032C121.662 57.9135 121.351 58.1256 120.956 58.2395C120.779 58.2867 120.586 58.3181 120.381 58.3338C120.176 58.3456 119.983 58.3535 119.797 58.3535H116.454H116.45ZM117.436 54.3585H119.442C119.557 54.3585 119.687 54.3506 119.833 54.3349C119.979 54.3192 120.101 54.2917 120.207 54.2524C120.436 54.1738 120.605 54.0364 120.716 53.8399C120.826 53.6475 120.877 53.4353 120.877 53.2036C120.877 52.9522 120.818 52.7322 120.7 52.5397C120.582 52.3512 120.404 52.2176 120.172 52.143C120.014 52.084 119.841 52.0526 119.655 52.0448C119.47 52.0369 119.356 52.033 119.304 52.033H117.428V54.3585H117.436ZM117.436 57.5246H119.75C119.845 57.5246 119.959 57.5167 120.101 57.501C120.243 57.4853 120.369 57.4657 120.479 57.4382C120.74 57.3714 120.933 57.2378 121.055 57.0375C121.177 56.8372 121.236 56.6172 121.236 56.3776C121.236 56.0633 121.146 55.808 120.96 55.6076C120.775 55.4073 120.531 55.2855 120.227 55.2384C120.124 55.2148 120.018 55.203 119.908 55.1991C119.797 55.1952 119.699 55.1912 119.608 55.1912H117.436V57.5246Z" fill="#F9F9F9"/>
<path d="M127.162 58.55C126.448 58.55 125.837 58.389 125.332 58.0669C124.828 57.7448 124.437 57.297 124.169 56.7274C123.901 56.1578 123.763 55.5057 123.763 54.7672C123.763 54.0287 123.901 53.357 124.173 52.7913C124.445 52.2256 124.839 51.7857 125.348 51.4675C125.857 51.1532 126.46 50.9922 127.162 50.9922C127.863 50.9922 128.494 51.1532 128.999 51.4714C129.503 51.7896 129.894 52.2374 130.162 52.8031C130.43 53.3687 130.564 54.0248 130.564 54.7593C130.564 55.4939 130.43 56.1696 130.158 56.7352C129.886 57.3009 129.495 57.7448 128.987 58.0629C128.478 58.3811 127.867 58.5383 127.158 58.5383L127.162 58.55ZM127.162 57.6151C127.958 57.6151 128.553 57.3519 128.943 56.8216C129.334 56.2953 129.527 55.6078 129.527 54.7633C129.527 53.9187 129.33 53.2077 128.94 52.697C128.545 52.1864 127.954 51.9271 127.162 51.9271C126.625 51.9271 126.184 52.0489 125.837 52.2885C125.49 52.5281 125.23 52.862 125.06 53.2902C124.891 53.7144 124.804 54.2055 124.804 54.7633C124.804 55.6235 125.005 56.3149 125.403 56.8334C125.801 57.3519 126.389 57.6112 127.165 57.6112L127.162 57.6151Z" fill="#F9F9F9"/>
<path d="M132.082 59.9405V57.5168C132.488 57.5168 132.783 57.3871 132.961 57.1239C133.138 56.8608 133.28 56.4404 133.394 55.863C133.469 55.4859 133.532 55.0852 133.58 54.6492C133.627 54.2171 133.67 53.7221 133.706 53.1604C133.741 52.6026 133.773 51.9466 133.804 51.1963H138.551V57.5168H139.241V59.9405H138.299V58.3495H133.02V59.9405H132.082ZM133.737 57.5168H137.581V52.033H134.707C134.695 52.3669 134.676 52.7244 134.652 53.0975C134.628 53.4746 134.601 53.8478 134.565 54.2249C134.534 54.602 134.494 54.9516 134.451 55.2816C134.408 55.6116 134.36 55.8983 134.301 56.1458C134.234 56.464 134.163 56.7351 134.084 56.959C134.005 57.1829 133.891 57.3714 133.733 57.5168H133.737Z" fill="#F9F9F9"/>
<path d="M144.157 58.55C143.444 58.55 142.832 58.389 142.328 58.0669C141.823 57.7448 141.433 57.297 141.165 56.7274C140.897 56.1578 140.759 55.5057 140.759 54.7672C140.759 54.0287 140.897 53.357 141.169 52.7913C141.441 52.2256 141.835 51.7857 142.344 51.4675C142.852 51.1532 143.455 50.9922 144.157 50.9922C144.859 50.9922 145.49 51.1532 145.994 51.4714C146.499 51.7896 146.889 52.2374 147.157 52.8031C147.425 53.3687 147.559 54.0248 147.559 54.7593C147.559 55.4939 147.425 56.1696 147.153 56.7352C146.881 57.3009 146.491 57.7448 145.982 58.0629C145.474 58.3811 144.863 58.5383 144.153 58.5383L144.157 58.55ZM144.157 57.6151C144.953 57.6151 145.549 57.3519 145.939 56.8216C146.329 56.2953 146.523 55.6078 146.523 54.7633C146.523 53.9187 146.325 53.2077 145.935 52.697C145.541 52.1864 144.95 51.9271 144.157 51.9271C143.621 51.9271 143.179 52.0489 142.832 52.2885C142.486 52.5281 142.225 52.862 142.056 53.2902C141.886 53.7144 141.8 54.2055 141.8 54.7633C141.8 55.6235 142.001 56.3149 142.399 56.8334C142.797 57.3519 143.384 57.6112 144.161 57.6112L144.157 57.6151Z" fill="#F9F9F9"/>
<path d="M152.606 58.55C151.892 58.55 151.281 58.389 150.777 58.0669C150.272 57.7448 149.882 57.297 149.614 56.7274C149.346 56.1578 149.208 55.5057 149.208 54.7672C149.208 54.0287 149.346 53.357 149.618 52.7913C149.89 52.2256 150.284 51.7857 150.792 51.4675C151.301 51.1532 151.904 50.9922 152.606 50.9922C153.308 50.9922 153.938 51.1532 154.443 51.4714C154.948 51.7896 155.338 52.2374 155.606 52.8031C155.874 53.3687 156.008 54.0248 156.008 54.7593C156.008 55.4939 155.874 56.1696 155.602 56.7352C155.33 57.3009 154.94 57.7448 154.431 58.0629C153.923 58.3811 153.312 58.5383 152.602 58.5383L152.606 58.55ZM152.606 57.6151C153.402 57.6151 153.998 57.3519 154.388 56.8216C154.778 56.2953 154.971 55.6078 154.971 54.7633C154.971 53.9187 154.774 53.2077 154.384 52.697C153.99 52.1864 153.398 51.9271 152.606 51.9271C152.07 51.9271 151.628 52.0489 151.281 52.2885C150.934 52.5281 150.674 52.862 150.505 53.2902C150.335 53.7144 150.248 54.2055 150.248 54.7633C150.248 55.6235 150.449 56.3149 150.848 56.8334C151.246 57.3519 151.833 57.6112 152.61 57.6112L152.606 57.6151Z" fill="#F9F9F9"/>
<path d="M162.454 58.3535V55.6902C162.213 55.808 161.917 55.9141 161.571 56.0005C161.22 56.0909 160.845 56.1341 160.439 56.1341C159.714 56.1341 159.122 55.973 158.669 55.6509C158.216 55.3288 157.92 54.8613 157.786 54.2525C157.743 54.0718 157.711 53.8793 157.695 53.675C157.679 53.4708 157.668 53.2901 157.664 53.1251C157.66 52.9601 157.656 52.8462 157.656 52.7755V51.2003H158.641V52.7755C158.641 52.9208 158.645 53.0858 158.653 53.2704C158.661 53.455 158.681 53.6357 158.712 53.8125C158.803 54.2957 159 54.6571 159.316 54.9046C159.627 55.152 160.069 55.2738 160.636 55.2738C160.991 55.2738 161.326 55.2267 161.645 55.1363C161.961 55.046 162.233 54.9242 162.454 54.7671V51.1885H163.431V58.3417H162.454V58.3535Z" fill="#F9F9F9"/>
<path d="M171.585 51.1963V58.3495H170.634V52.7794L166.7 58.3495H165.876V51.1963H166.826V56.7193L170.768 51.1963H171.585Z" fill="#F9F9F9"/>
<path d="M177.009 58.55C176.288 58.55 175.676 58.3889 175.176 58.0668C174.675 57.7447 174.297 57.3008 174.036 56.7312C173.776 56.1656 173.642 55.5096 173.634 54.775C173.642 54.0247 173.78 53.3648 174.044 52.7991C174.308 52.2335 174.695 51.7896 175.195 51.4753C175.696 51.1611 176.303 51 177.017 51C177.73 51 178.377 51.1768 178.913 51.5303C179.449 51.8838 179.82 52.367 180.021 52.9798L179.063 53.2862C178.893 52.858 178.629 52.5241 178.263 52.2884C177.896 52.0528 177.478 51.9349 177.009 51.9349C176.481 51.9349 176.043 52.0567 175.7 52.2963C175.353 52.5359 175.097 52.8698 174.927 53.298C174.758 53.7262 174.671 54.2172 174.667 54.775C174.675 55.6314 174.876 56.3188 175.266 56.8373C175.657 57.3558 176.236 57.6151 177.009 57.6151C177.498 57.6151 177.912 57.5051 178.255 57.2812C178.598 57.0573 178.858 56.7312 179.035 56.3031L180.021 56.5938C179.757 57.2301 179.367 57.7133 178.85 58.0472C178.338 58.3811 177.723 58.5461 177.009 58.5461V58.55Z" fill="#F9F9F9"/>
<path d="M183.743 58.3535V52.0998H181.196V51.2002H187.267V52.0998H184.72V58.3535H183.743Z" fill="#F9F9F9"/>
<path d="M189.108 58.3535L189.116 51.2002H190.102V54.6452L193.307 51.2002H194.612L191.249 54.7788L195.054 58.3574H193.63L190.106 54.9123V58.3574H189.116L189.108 58.3535Z" fill="#F9F9F9"/>
<path d="M202 51.1963V58.3495H201.05V52.7794L197.115 58.3495H196.292V51.1963H197.242V56.7193L201.184 51.1963H202Z" fill="#F9F9F9"/>
</g>
</g>
<defs>
<clipPath id="clip0_29_493">
<rect width="202" height="72" fill="white"/>
</clipPath>
</defs>
</svg>
