<svg width="40" height="40" viewBox="0 0 40 40" fill="none" xmlns="http://www.w3.org/2000/svg">
<path d="M38.5 20C38.5 30.2173 30.2173 38.5 20 38.5C9.78275 38.5 1.5 30.2173 1.5 20C1.5 9.78275 9.78275 1.5 20 1.5C30.2173 1.5 38.5 9.78275 38.5 20Z" stroke="#F5F5F5" stroke-width="3"/>
<path d="M8.5735 19.5618C8.5735 19.5618 18.4805 15.3471 21.9164 13.863C23.2335 13.2694 27.7002 11.3697 27.7002 11.3697C27.7002 11.3697 29.7618 10.5386 29.59 12.557C29.5327 13.3881 29.0746 16.2968 28.6165 19.4431C27.9293 23.8954 27.1848 28.7632 27.1848 28.7632C27.1848 28.7632 27.0703 30.1286 26.0968 30.366C25.1233 30.6034 23.5198 29.535 23.2335 29.2974C23.0044 29.1194 18.9386 26.448 17.4497 25.142C17.0488 24.7858 16.5907 24.0735 17.5069 23.2424C19.5685 21.2834 22.0309 18.8495 23.5198 17.3061C24.207 16.5937 24.8942 14.9315 22.0309 16.9498C17.9651 19.8587 13.9565 22.5894 13.9565 22.5894C13.9565 22.5894 13.0402 23.183 11.3223 22.6487C9.60422 22.1145 7.59992 21.4021 7.59992 21.4021C7.59992 21.4021 6.22562 20.5117 8.5735 19.5618Z" fill="white"/>
</svg>
