<svg width="312" height="148" viewBox="0 0 312 148" fill="none" xmlns="http://www.w3.org/2000/svg">
<path d="M302.5 131.5L302.5 48C302.5 29.1438 302.5 19.7158 296.642 13.8579C290.784 8.00002 281.356 8.00002 262.5 8.00002L183.5 8L16.5 8" stroke="#004E9C" stroke-width="2" stroke-miterlimit="16" stroke-linecap="square" stroke-dasharray="4 4"/>
<path d="M300.742 146.352C301.291 147.451 301.565 148 302 148C302.435 148 302.709 147.451 303.258 146.352L311.557 129.745C311.879 129.1 312.041 128.777 311.991 128.538C311.95 128.336 311.822 128.163 311.641 128.064C311.427 127.946 311.072 128.006 310.36 128.124C307.212 128.649 305.637 128.912 304.053 129.015C302.686 129.104 301.314 129.104 299.947 129.015C298.363 128.912 296.788 128.649 293.64 128.124C292.928 128.006 292.573 127.946 292.359 128.064C292.178 128.163 292.05 128.336 292.009 128.538C291.959 128.777 292.121 129.1 292.443 129.745L300.742 146.352Z" fill="#004E9C"/>
<circle cx="8.5" cy="8.5" r="7.5" stroke="#004E9C" stroke-width="2"/>
</svg>
