<svg width="312" height="148" viewBox="0 0 312 148" fill="none" xmlns="http://www.w3.org/2000/svg">
<path d="M9.5 131.5L9.5 48C9.5 29.1438 9.5 19.7158 15.3579 13.8579C21.2157 8.00002 30.6438 8.00002 49.5 8.00002L128.5 8L295.5 8" stroke="#004E9C" stroke-width="2" stroke-miterlimit="16" stroke-linecap="square" stroke-dasharray="4 4"/>
<path d="M11.2581 146.352C10.7091 147.451 10.4347 148 10 148C9.56535 148 9.29088 147.451 8.74194 146.352L0.443266 129.745C0.120699 129.1 -0.0405865 128.777 0.00875282 128.538C0.0504265 128.336 0.178408 128.163 0.358913 128.064C0.572609 127.946 0.928341 128.006 1.63981 128.124C4.78846 128.649 6.36279 128.912 7.94665 129.015C9.31411 129.104 10.6859 129.104 12.0534 129.015C13.6372 128.912 15.2115 128.649 18.3602 128.124C19.0717 128.006 19.4274 127.946 19.6411 128.064C19.8216 128.163 19.9496 128.336 19.9913 128.538C20.0406 128.777 19.8793 129.1 19.5567 129.745L11.2581 146.352Z" fill="#004E9C"/>
<circle cx="8.5" cy="8.5" r="7.5" transform="matrix(-1 0 0 1 312 0)" stroke="#004E9C" stroke-width="2"/>
</svg>
